<?xml version="1.0" encoding="UTF-8" standalone="no"?>
<!DOCTYPE svg PUBLIC "-//W3C//DTD SVG 1.1//EN"
 "http://www.w3.org/Graphics/SVG/1.1/DTD/svg11.dtd">
<!-- Generated by graphviz version 2.40.1 (20161225.0304)
 -->
<!-- Title: Automaton Pages: 1 -->
<svg width="717pt" height="170pt"
 viewBox="0.00 0.00 717.41 169.80" xmlns="http://www.w3.org/2000/svg" xmlns:xlink="http://www.w3.org/1999/xlink">
<g id="graph0" class="graph" transform="scale(1 1) rotate(0) translate(4 165.8)">
<title>Automaton</title>
<!-- 0 -->
<!-- eyJ0eXBlIjoic3RhdGUiLCJpbml0aWFsIjp0cnVlLCJhY2NlcHRpbmciOmZhbHNlfQ== -->
<g id="0" class="node">
<title>0</title>
<ellipse fill="none" stroke="#000000" cx="67.9622" cy="-18" rx="29.9244" ry="18"/>
<text text-anchor="middle" x="67.9622" y="-13.8" font-family="Times,serif" font-size="14.00" fill="#000000">{q0}</text>
</g>
<!-- 1 -->
<!-- eyJ0eXBlIjoic3RhdGUiLCJpbml0aWFsIjpmYWxzZSwiYWNjZXB0aW5nIjpmYWxzZX0= -->
<g id="1" class="node">
<title>1</title>
<ellipse fill="none" stroke="#000000" cx="182.1723" cy="-48" rx="42.0668" ry="18"/>
<text text-anchor="middle" x="182.1723" y="-43.8" font-family="Times,serif" font-size="14.00" fill="#000000">{q0,q1}</text>
</g>
<!-- 0&#45;&gt;1 -->
<!-- eyJ0eXBlIjoidHJhbnNpdGlvbiIsImZyb20iOiIwIiwidG8iOiIxIiwibGV0dGVycyI6WyJhIl19 -->
<g id="0|1" class="edge">
<title>0&#45;&gt;1</title>
<path fill="none" stroke="#000000" d="M95.6093,-25.2622C107.8276,-28.4716 122.5236,-32.3319 136.3095,-35.953"/>
<polygon fill="#000000" stroke="#000000" points="135.5773,-39.3794 146.1384,-38.5348 137.3557,-32.609 135.5773,-39.3794"/>
<text text-anchor="start" x="115.9244" y="-38.2" font-family="Times,serif" font-style="italic" font-size="14.00" fill="#000000">a</text>
</g>
<!-- 2 -->
<!-- eyJ0eXBlIjoic3RhdGUiLCJpbml0aWFsIjpmYWxzZSwiYWNjZXB0aW5nIjpmYWxzZX0= -->
<g id="2" class="node">
<title>2</title>
<ellipse fill="none" stroke="#000000" cx="682.4074" cy="-18" rx="27" ry="18"/>
<text text-anchor="middle" x="682.4074" y="-13.8" font-family="Times,serif" font-size="14.00" fill="#000000">∅</text>
</g>
<!-- 0&#45;&gt;2 -->
<!-- eyJ0eXBlIjoidHJhbnNpdGlvbiIsImZyb20iOiIwIiwidG8iOiIyIiwibGV0dGVycyI6WyJiIl19 -->
<g id="0|2" class="edge">
<title>0&#45;&gt;2</title>
<path fill="none" stroke="#000000" d="M96.4387,-11.7682C119.451,-7.2756 152.7403,-2 182.1723,-2 182.1723,-2 182.1723,-2 561.7306,-2 590.4499,-2 622.683,-6.5084 646.607,-10.7388"/>
<polygon fill="#000000" stroke="#000000" points="646.176,-14.2181 656.6439,-12.5831 647.4411,-7.3334 646.176,-14.2181"/>
<text text-anchor="start" x="400.6294" y="-7.2" font-family="Times,serif" font-style="italic" font-size="14.00" fill="#000000">b</text>
</g>
<!-- 3 -->
<!-- eyJ0eXBlIjoic3RhdGUiLCJpbml0aWFsIjpmYWxzZSwiYWNjZXB0aW5nIjp0cnVlfQ== -->
<g id="3" class="node">
<title>3</title>
<ellipse fill="none" stroke="#000000" cx="324.5249" cy="-105" rx="54.2021" ry="18"/>
<ellipse fill="none" stroke="#000000" cx="324.5249" cy="-105" rx="58.2093" ry="22"/>
<text text-anchor="middle" x="324.5249" y="-100.8" font-family="Times,serif" font-size="14.00" fill="#000000">{q0,q1,q2}</text>
</g>
<!-- 1&#45;&gt;3 -->
<!-- eyJ0eXBlIjoidHJhbnNpdGlvbiIsImZyb20iOiIxIiwidG8iOiIzIiwibGV0dGVycyI6WyJhIl19 -->
<g id="1|3" class="edge">
<title>1&#45;&gt;3</title>
<path fill="none" stroke="#000000" d="M213.0607,-60.3682C231.1322,-67.6042 254.3702,-76.9091 274.9476,-85.1486"/>
<polygon fill="#000000" stroke="#000000" points="273.9084,-88.5026 284.4929,-88.9706 276.5105,-82.0041 273.9084,-88.5026"/>
<text text-anchor="start" x="242.2057" y="-78.2" font-family="Times,serif" font-style="italic" font-size="14.00" fill="#000000">a</text>
</g>
<!-- 4 -->
<!-- eyJ0eXBlIjoic3RhdGUiLCJpbml0aWFsIjpmYWxzZSwiYWNjZXB0aW5nIjpmYWxzZX0= -->
<g id="4" class="node">
<title>4</title>
<ellipse fill="none" stroke="#000000" cx="455.5916" cy="-52" rx="29.9244" ry="18"/>
<text text-anchor="middle" x="455.5916" y="-47.8" font-family="Times,serif" font-size="14.00" fill="#000000">{q1}</text>
</g>
<!-- 1&#45;&gt;4 -->
<!-- eyJ0eXBlIjoidHJhbnNpdGlvbiIsImZyb20iOiIxIiwidG8iOiI0IiwibGV0dGVycyI6WyJiIl19 -->
<g id="1|4" class="edge">
<title>1&#45;&gt;4</title>
<path fill="none" stroke="#000000" d="M224.2949,-48.6162C276.2878,-49.3769 364.082,-50.6613 415.244,-51.4097"/>
<polygon fill="#000000" stroke="#000000" points="415.2228,-54.9097 425.2729,-51.5565 415.3252,-47.9104 415.2228,-54.9097"/>
<text text-anchor="start" x="321.0249" y="-55.2" font-family="Times,serif" font-style="italic" font-size="14.00" fill="#000000">b</text>
</g>
<!-- 2&#45;&gt;2 -->
<!-- eyJ0eXBlIjoidHJhbnNpdGlvbiIsImZyb20iOiIyIiwidG8iOiIyIiwibGV0dGVycyI6WyJhIiwiYiJdfQ== -->
<g id="2|2" class="edge">
<title>2&#45;&gt;2</title>
<path fill="none" stroke="#000000" d="M672.4841,-35.0373C670.459,-44.8579 673.7667,-54 682.4074,-54 687.8078,-54 691.125,-50.4289 692.3591,-45.3529"/>
<polygon fill="#000000" stroke="#000000" points="695.8583,-45.0276 692.3306,-35.0373 688.8583,-45.047 695.8583,-45.0276"/>
<text text-anchor="start" x="670.5501" y="-59.2" font-family="Times,serif" font-style="italic" font-size="14.00" fill="#000000">a</text>
<text text-anchor="start" x="676.7647" y="-59.2" font-family="Times,serif" font-size="14.00" fill="#000000"> , </text>
<text text-anchor="start" x="687.2647" y="-59.2" font-family="Times,serif" font-style="italic" font-size="14.00" fill="#000000">b</text>
</g>
<!-- 3&#45;&gt;3 -->
<!-- eyJ0eXBlIjoidHJhbnNpdGlvbiIsImZyb20iOiIzIiwidG8iOiIzIiwibGV0dGVycyI6WyJhIl19 -->
<g id="3|3" class="edge">
<title>3&#45;&gt;3</title>
<path fill="none" stroke="#000000" d="M310.1891,-126.3994C308.6252,-136.3265 313.4038,-145 324.5249,-145 331.4755,-145 335.9487,-141.6119 337.9443,-136.6472"/>
<polygon fill="#000000" stroke="#000000" points="341.456,-136.6714 338.8606,-126.3994 334.4838,-136.0479 341.456,-136.6714"/>
<text text-anchor="start" x="321.4176" y="-150.2" font-family="Times,serif" font-style="italic" font-size="14.00" fill="#000000">a</text>
</g>
<!-- 3&#45;&gt;4 -->
<!-- eyJ0eXBlIjoidHJhbnNpdGlvbiIsImZyb20iOiIzIiwidG8iOiI0IiwibGV0dGVycyI6WyJiIl19 -->
<g id="3|4" class="edge">
<title>3&#45;&gt;4</title>
<path fill="none" stroke="#000000" d="M364.5614,-88.8103C382.5596,-81.5322 403.5977,-73.025 420.9124,-66.0234"/>
<polygon fill="#000000" stroke="#000000" points="422.667,-69.0893 430.6256,-62.0956 420.0428,-62.5997 422.667,-69.0893"/>
<text text-anchor="start" x="400.6294" y="-78.2" font-family="Times,serif" font-style="italic" font-size="14.00" fill="#000000">b</text>
</g>
<!-- 4&#45;&gt;4 -->
<!-- eyJ0eXBlIjoidHJhbnNpdGlvbiIsImZyb20iOiI0IiwidG8iOiI0IiwibGV0dGVycyI6WyJiIl19 -->
<g id="4|4" class="edge">
<title>4&#45;&gt;4</title>
<path fill="none" stroke="#000000" d="M446.6652,-69.4099C444.999,-79.0879 447.9744,-88 455.5916,-88 460.3523,-88 463.2999,-84.5187 464.4343,-79.5449"/>
<polygon fill="#000000" stroke="#000000" points="467.9352,-79.4385 464.518,-69.4099 460.9354,-79.3806 467.9352,-79.4385"/>
<text text-anchor="start" x="452.0916" y="-93.2" font-family="Times,serif" font-style="italic" font-size="14.00" fill="#000000">b</text>
</g>
<!-- 5 -->
<!-- eyJ0eXBlIjoic3RhdGUiLCJpbml0aWFsIjpmYWxzZSwiYWNjZXB0aW5nIjp0cnVlfQ== -->
<g id="5" class="node">
<title>5</title>
<ellipse fill="none" stroke="#000000" cx="561.7306" cy="-52" rx="29.9289" ry="18"/>
<ellipse fill="none" stroke="#000000" cx="561.7306" cy="-52" rx="33.9244" ry="22"/>
<text text-anchor="middle" x="561.7306" y="-47.8" font-family="Times,serif" font-size="14.00" fill="#000000">{q2}</text>
</g>
<!-- 4&#45;&gt;5 -->
<!-- eyJ0eXBlIjoidHJhbnNpdGlvbiIsImZyb20iOiI0IiwidG8iOiI1IiwibGV0dGVycyI6WyJhIl19 -->
<g id="4|5" class="edge">
<title>4&#45;&gt;5</title>
<path fill="none" stroke="#000000" d="M485.7229,-52C495.5691,-52 506.7199,-52 517.387,-52"/>
<polygon fill="#000000" stroke="#000000" points="517.4077,-55.5001 527.4077,-52 517.4077,-48.5001 517.4077,-55.5001"/>
<text text-anchor="start" x="503.5538" y="-57.2" font-family="Times,serif" font-style="italic" font-size="14.00" fill="#000000">a</text>
</g>
<!-- 5&#45;&gt;2 -->
<!-- eyJ0eXBlIjoidHJhbnNpdGlvbiIsImZyb20iOiI1IiwidG8iOiIyIiwibGV0dGVycyI6WyJhIiwiYiJdfQ== -->
<g id="5|2" class="edge">
<title>5&#45;&gt;2</title>
<path fill="none" stroke="#000000" d="M593.122,-43.1557C609.8182,-38.4516 630.3898,-32.6557 647.5771,-27.8132"/>
<polygon fill="#000000" stroke="#000000" points="648.5746,-31.1685 657.2507,-25.0877 646.6763,-24.4308 648.5746,-31.1685"/>
<text text-anchor="start" x="613.6928" y="-43.2" font-family="Times,serif" font-style="italic" font-size="14.00" fill="#000000">a</text>
<text text-anchor="start" x="619.9074" y="-43.2" font-family="Times,serif" font-size="14.00" fill="#000000"> , </text>
<text text-anchor="start" x="630.4074" y="-43.2" font-family="Times,serif" font-style="italic" font-size="14.00" fill="#000000">b</text>
</g>
<!-- start0 -->
<!-- eyJ0eXBlIjoic3RhcnQiLCJ0byI6MH0= -->
<g id="node7" class="node">
<title>start0</title>
</g>
<!-- start0&#45;&gt;0 -->
<!-- eyJ0eXBlIjoic3RhcnRfYXJyb3ciLCJ0byI6MH0= -->
<g id="start_arrow0" class="edge">
<title>start0&#45;&gt;0</title>
<path fill="none" stroke="#000000" d="M1.2576,-16C4.2046,-16 15.3538,-16 27.7167,-16"/>
<path fill="none" stroke="transparent" d="M1.2576,-18C4.2046,-18 15.3538,-18 27.7167,-18"/>
<path fill="none" stroke="#000000" d="M1.2576,-20C4.2046,-20 15.3538,-20 27.7167,-20"/>
<polygon fill="#000000" stroke="#000000" points="27.7583,-21.5001 37.7582,-18 27.7582,-14.5001 27.7583,-21.5001"/>
</g>
</g>
</svg>
