<?xml version="1.0" encoding="UTF-8" standalone="no"?>
<!DOCTYPE svg PUBLIC "-//W3C//DTD SVG 1.1//EN"
 "http://www.w3.org/Graphics/SVG/1.1/DTD/svg11.dtd">
<!-- Generated by graphviz version 2.40.1 (20161225.0304)
 -->
<!-- Title: Automaton Pages: 1 -->
<svg width="343pt" height="176pt"
 viewBox="0.00 0.00 343.13 175.80" xmlns="http://www.w3.org/2000/svg" xmlns:xlink="http://www.w3.org/1999/xlink">
<g id="graph0" class="graph" transform="scale(1 1) rotate(0) translate(4 171.8)">
<title>Automaton</title>
<!-- 0 -->
<!-- eyJ0eXBlIjoic3RhdGUiLCJpbml0aWFsIjp0cnVlLCJhY2NlcHRpbmciOmZhbHNlfQ== -->
<g id="0" class="node">
<title>0</title>
<ellipse fill="none" stroke="#000000" cx="67.9622" cy="-18" rx="29.9244" ry="18"/>
<text text-anchor="middle" x="67.9622" y="-13.8" font-family="Times,serif" font-size="14.00" fill="#000000">{q0}</text>
</g>
<!-- 0&#45;&gt;0 -->
<!-- eyJ0eXBlIjoidHJhbnNpdGlvbiIsImZyb20iOiIwIiwidG8iOiIwIiwibGV0dGVycyI6WyJiIl19 -->
<g id="0|0" class="edge">
<title>0&#45;&gt;0</title>
<path fill="none" stroke="#000000" d="M59.3929,-35.4099C57.7932,-45.0879 60.6497,-54 67.9622,-54 72.5325,-54 75.3622,-50.5187 76.4512,-45.5449"/>
<polygon fill="#000000" stroke="#000000" points="79.9521,-45.4374 76.5315,-35.4099 72.9523,-45.3818 79.9521,-45.4374"/>
<text text-anchor="start" x="64.4622" y="-59.2" font-family="Times,serif" font-style="italic" font-size="14.00" fill="#000000">b</text>
</g>
<!-- 1 -->
<!-- eyJ0eXBlIjoic3RhdGUiLCJpbml0aWFsIjpmYWxzZSwiYWNjZXB0aW5nIjpmYWxzZX0= -->
<g id="1" class="node">
<title>1</title>
<ellipse fill="none" stroke="#000000" cx="170.1012" cy="-65" rx="29.9244" ry="18"/>
<text text-anchor="middle" x="170.1012" y="-60.8" font-family="Times,serif" font-size="14.00" fill="#000000">{q1}</text>
</g>
<!-- 0&#45;&gt;1 -->
<!-- eyJ0eXBlIjoidHJhbnNpdGlvbiIsImZyb20iOiIwIiwidG8iOiIxIiwibGV0dGVycyI6WyJhIl19 -->
<g id="0|1" class="edge">
<title>0&#45;&gt;1</title>
<path fill="none" stroke="#000000" d="M91.9092,-29.0194C105.3556,-35.2069 122.336,-43.0205 137.0346,-49.7842"/>
<polygon fill="#000000" stroke="#000000" points="135.7567,-53.0489 146.3041,-54.0496 138.6829,-46.6898 135.7567,-53.0489"/>
<text text-anchor="start" x="115.9244" y="-48.2" font-family="Times,serif" font-style="italic" font-size="14.00" fill="#000000">a</text>
</g>
<!-- 2 -->
<!-- eyJ0eXBlIjoic3RhdGUiLCJpbml0aWFsIjpmYWxzZSwiYWNjZXB0aW5nIjpmYWxzZX0= -->
<g id="2" class="node">
<title>2</title>
<ellipse fill="none" stroke="#000000" cx="289.0967" cy="-115" rx="27" ry="18"/>
<text text-anchor="middle" x="289.0967" y="-110.8" font-family="Times,serif" font-size="14.00" fill="#000000">∅</text>
</g>
<!-- 1&#45;&gt;2 -->
<!-- eyJ0eXBlIjoidHJhbnNpdGlvbiIsImZyb20iOiIxIiwidG8iOiIyIiwibGV0dGVycyI6WyJiIl19 -->
<g id="1|2" class="edge">
<title>1&#45;&gt;2</title>
<path fill="none" stroke="#000000" d="M194.7571,-75.36C212.6939,-82.8968 237.1536,-93.1743 256.6724,-101.3758"/>
<polygon fill="#000000" stroke="#000000" points="255.512,-104.6846 266.0871,-105.3317 258.2237,-98.2312 255.512,-104.6846"/>
<text text-anchor="start" x="218.0634" y="-92.2" font-family="Times,serif" font-style="italic" font-size="14.00" fill="#000000">b</text>
</g>
<!-- 3 -->
<!-- eyJ0eXBlIjoic3RhdGUiLCJpbml0aWFsIjpmYWxzZSwiYWNjZXB0aW5nIjp0cnVlfQ== -->
<g id="3" class="node">
<title>3</title>
<ellipse fill="none" stroke="#000000" cx="289.0967" cy="-35" rx="42.0639" ry="18"/>
<ellipse fill="none" stroke="#000000" cx="289.0967" cy="-35" rx="46.0668" ry="22"/>
<text text-anchor="middle" x="289.0967" y="-30.8" font-family="Times,serif" font-size="14.00" fill="#000000">{q0,q2}</text>
</g>
<!-- 1&#45;&gt;3 -->
<!-- eyJ0eXBlIjoidHJhbnNpdGlvbiIsImZyb20iOiIxIiwidG8iOiIzIiwibGV0dGVycyI6WyJhIl19 -->
<g id="1|3" class="edge">
<title>1&#45;&gt;3</title>
<path fill="none" stroke="#000000" d="M198.7022,-59.0907C207.2095,-57.2426 216.5346,-55.1278 225.0634,-53 229.7867,-51.8216 234.6908,-50.5432 239.5881,-49.2297"/>
<polygon fill="#000000" stroke="#000000" points="240.8453,-52.5146 249.5707,-46.5049 239.002,-45.7617 240.8453,-52.5146"/>
<text text-anchor="start" x="218.4561" y="-60.2" font-family="Times,serif" font-style="italic" font-size="14.00" fill="#000000">a</text>
</g>
<!-- 2&#45;&gt;2 -->
<!-- eyJ0eXBlIjoidHJhbnNpdGlvbiIsImZyb20iOiIyIiwidG8iOiIyIiwibGV0dGVycyI6WyJiIiwiYSJdfQ== -->
<g id="2|2" class="edge">
<title>2&#45;&gt;2</title>
<path fill="none" stroke="#000000" d="M277.5949,-131.2903C274.8214,-141.3892 278.6553,-151 289.0967,-151 295.7857,-151 299.7631,-147.0557 301.0287,-141.5656"/>
<polygon fill="#000000" stroke="#000000" points="304.5138,-141.1351 300.5986,-131.2903 297.52,-141.4279 304.5138,-141.1351"/>
<text text-anchor="start" x="277.2394" y="-156.2" font-family="Times,serif" font-style="italic" font-size="14.00" fill="#000000">b</text>
<text text-anchor="start" x="284.2394" y="-156.2" font-family="Times,serif" font-size="14.00" fill="#000000"> , </text>
<text text-anchor="start" x="294.7394" y="-156.2" font-family="Times,serif" font-style="italic" font-size="14.00" fill="#000000">a</text>
</g>
<!-- 3&#45;&gt;0 -->
<!-- eyJ0eXBlIjoidHJhbnNpdGlvbiIsImZyb20iOiIzIiwidG8iOiIwIiwibGV0dGVycyI6WyJiIl19 -->
<g id="3|0" class="edge">
<title>3&#45;&gt;0</title>
<path fill="none" stroke="#000000" d="M245.7614,-27.1304C231.2795,-24.8089 215.02,-22.5346 200.0634,-21.2 169.3361,-18.4581 134.4402,-17.7138 108.2334,-17.6251"/>
<polygon fill="#000000" stroke="#000000" points="107.9307,-14.1251 97.9297,-17.6222 107.9287,-21.1251 107.9307,-14.1251"/>
<text text-anchor="start" x="166.6012" y="-27.2" font-family="Times,serif" font-style="italic" font-size="14.00" fill="#000000">b</text>
</g>
<!-- 3&#45;&gt;1 -->
<!-- eyJ0eXBlIjoidHJhbnNpdGlvbiIsImZyb20iOiIzIiwidG8iOiIxIiwibGV0dGVycyI6WyJhIl19 -->
<g id="3|1" class="edge">
<title>3&#45;&gt;1</title>
<path fill="none" stroke="#000000" d="M244.9162,-28.6712C235.8857,-28.6477 226.5528,-29.5748 218.0634,-32.2 210.0673,-34.6727 202.2164,-38.9878 195.2564,-43.6915"/>
<polygon fill="#000000" stroke="#000000" points="192.9798,-41.0203 186.973,-49.7478 197.1112,-46.671 192.9798,-41.0203"/>
<text text-anchor="start" x="218.4561" y="-38.2" font-family="Times,serif" font-style="italic" font-size="14.00" fill="#000000">a</text>
</g>
<!-- start0 -->
<!-- eyJ0eXBlIjoic3RhcnQiLCJ0byI6MH0= -->
<g id="node5" class="node">
<title>start0</title>
</g>
<!-- start0&#45;&gt;0 -->
<!-- eyJ0eXBlIjoic3RhcnRfYXJyb3ciLCJ0byI6MH0= -->
<g id="start_arrow0" class="edge">
<title>start0&#45;&gt;0</title>
<path fill="none" stroke="#000000" d="M1.2576,-16C4.2046,-16 15.3538,-16 27.7167,-16"/>
<path fill="none" stroke="transparent" d="M1.2576,-18C4.2046,-18 15.3538,-18 27.7167,-18"/>
<path fill="none" stroke="#000000" d="M1.2576,-20C4.2046,-20 15.3538,-20 27.7167,-20"/>
<polygon fill="#000000" stroke="#000000" points="27.7583,-21.5001 37.7582,-18 27.7582,-14.5001 27.7583,-21.5001"/>
</g>
</g>
</svg>
