<?xml version="1.0" encoding="UTF-8" standalone="no"?>
<!DOCTYPE svg PUBLIC "-//W3C//DTD SVG 1.1//EN"
 "http://www.w3.org/Graphics/SVG/1.1/DTD/svg11.dtd">
<!-- Generated by graphviz version 2.40.1 (20161225.0304)
 -->
<!-- Title: Automaton Pages: 1 -->
<svg width="424pt" height="199pt"
 viewBox="0.00 0.00 424.34 198.80" xmlns="http://www.w3.org/2000/svg" xmlns:xlink="http://www.w3.org/1999/xlink">
<g id="graph0" class="graph" transform="scale(1 1) rotate(0) translate(4 194.8)">
<title>Automaton</title>
<!-- 0 -->
<!-- eyJ0eXBlIjoic3RhdGUiLCJpbml0aWFsIjp0cnVlLCJhY2NlcHRpbmciOmZhbHNlfQ== -->
<g id="0" class="node">
<title>0</title>
<ellipse fill="none" stroke="#000000" cx="80.0334" cy="-85" rx="42.0668" ry="18"/>
<text text-anchor="middle" x="80.0334" y="-80.8" font-family="Times,serif" font-size="14.00" fill="#000000">{q0,q2}</text>
</g>
<!-- 1 -->
<!-- eyJ0eXBlIjoic3RhdGUiLCJpbml0aWFsIjpmYWxzZSwiYWNjZXB0aW5nIjp0cnVlfQ== -->
<g id="1" class="node">
<title>1</title>
<ellipse fill="none" stroke="#000000" cx="223.1713" cy="-134" rx="54.2021" ry="18"/>
<ellipse fill="none" stroke="#000000" cx="223.1713" cy="-134" rx="58.2093" ry="22"/>
<text text-anchor="middle" x="223.1713" y="-129.8" font-family="Times,serif" font-size="14.00" fill="#000000">{q0,q1,q2}</text>
</g>
<!-- 0&#45;&gt;1 -->
<!-- eyJ0eXBlIjoidHJhbnNpdGlvbiIsImZyb20iOiIwIiwidG8iOiIxIiwibGV0dGVycyI6WyJhIl19 -->
<g id="0|1" class="edge">
<title>0&#45;&gt;1</title>
<path fill="none" stroke="#000000" d="M100.2589,-100.9237C111.3881,-108.8523 125.804,-117.8267 140.0667,-123 145.1973,-124.8609 150.608,-126.4127 156.1067,-127.706"/>
<polygon fill="#000000" stroke="#000000" points="155.556,-131.1661 166.0578,-129.7656 156.9747,-124.3114 155.556,-131.1661"/>
<text text-anchor="start" x="140.4594" y="-131.2" font-family="Times,serif" font-style="italic" font-size="14.00" fill="#000000">a</text>
</g>
<!-- 2 -->
<!-- eyJ0eXBlIjoic3RhdGUiLCJpbml0aWFsIjpmYWxzZSwiYWNjZXB0aW5nIjpmYWxzZX0= -->
<g id="2" class="node">
<title>2</title>
<ellipse fill="none" stroke="#000000" cx="223.1713" cy="-75" rx="29.9244" ry="18"/>
<text text-anchor="middle" x="223.1713" y="-70.8" font-family="Times,serif" font-size="14.00" fill="#000000">{q0}</text>
</g>
<!-- 0&#45;&gt;2 -->
<!-- eyJ0eXBlIjoidHJhbnNpdGlvbiIsImZyb20iOiIwIiwidG8iOiIyIiwibGV0dGVycyI6WyJiIl19 -->
<g id="0|2" class="edge">
<title>0&#45;&gt;2</title>
<path fill="none" stroke="#000000" d="M111.6989,-73.1159C120.7321,-70.2676 130.6742,-67.6363 140.0667,-66.2 154.7234,-63.9587 170.9218,-64.9093 185.0953,-66.8604"/>
<polygon fill="#000000" stroke="#000000" points="184.5832,-70.3229 195.0069,-68.4267 185.6758,-63.4087 184.5832,-70.3229"/>
<text text-anchor="start" x="140.0667" y="-72.2" font-family="Times,serif" font-style="italic" font-size="14.00" fill="#000000">b</text>
</g>
<!-- 1&#45;&gt;0 -->
<!-- eyJ0eXBlIjoidHJhbnNpdGlvbiIsImZyb20iOiIxIiwidG8iOiIwIiwibGV0dGVycyI6WyJiIl19 -->
<g id="1|0" class="edge">
<title>1&#45;&gt;0</title>
<path fill="none" stroke="#000000" d="M185.6462,-117.0541C173.48,-111.9027 159.8291,-106.4787 147.0667,-102.2 140.6376,-100.0446 133.7852,-98.0036 127.0087,-96.1313"/>
<polygon fill="#000000" stroke="#000000" points="127.7568,-92.7085 117.1927,-93.5152 125.9541,-99.4724 127.7568,-92.7085"/>
<text text-anchor="start" x="140.0667" y="-108.2" font-family="Times,serif" font-style="italic" font-size="14.00" fill="#000000">b</text>
</g>
<!-- 1&#45;&gt;1 -->
<!-- eyJ0eXBlIjoidHJhbnNpdGlvbiIsImZyb20iOiIxIiwidG8iOiIxIiwibGV0dGVycyI6WyJhIl19 -->
<g id="1|1" class="edge">
<title>1&#45;&gt;1</title>
<path fill="none" stroke="#000000" d="M208.8355,-155.3994C207.2716,-165.3265 212.0502,-174 223.1713,-174 230.122,-174 234.5951,-170.6119 236.5907,-165.6472"/>
<polygon fill="#000000" stroke="#000000" points="240.1024,-165.6714 237.5071,-155.3994 233.1303,-165.0479 240.1024,-165.6714"/>
<text text-anchor="start" x="220.064" y="-179.2" font-family="Times,serif" font-style="italic" font-size="14.00" fill="#000000">a</text>
</g>
<!-- 3 -->
<!-- eyJ0eXBlIjoic3RhdGUiLCJpbml0aWFsIjpmYWxzZSwiYWNjZXB0aW5nIjp0cnVlfQ== -->
<g id="3" class="node">
<title>3</title>
<ellipse fill="none" stroke="#000000" cx="370.3092" cy="-22" rx="42.0639" ry="18"/>
<ellipse fill="none" stroke="#000000" cx="370.3092" cy="-22" rx="46.0668" ry="22"/>
<text text-anchor="middle" x="370.3092" y="-17.8" font-family="Times,serif" font-size="14.00" fill="#000000">{q0,q1}</text>
</g>
<!-- 2&#45;&gt;3 -->
<!-- eyJ0eXBlIjoidHJhbnNpdGlvbiIsImZyb20iOiIyIiwidG8iOiIzIiwibGV0dGVycyI6WyJhIl19 -->
<g id="2|3" class="edge">
<title>2&#45;&gt;3</title>
<path fill="none" stroke="#000000" d="M249.1379,-65.6467C269.7495,-58.2222 299.0974,-47.6509 323.7479,-38.7717"/>
<polygon fill="#000000" stroke="#000000" points="325.0626,-42.0183 333.2847,-35.3364 322.6903,-35.4325 325.0626,-42.0183"/>
<text text-anchor="start" x="299.6685" y="-52.2" font-family="Times,serif" font-style="italic" font-size="14.00" fill="#000000">a</text>
</g>
<!-- 4 -->
<!-- eyJ0eXBlIjoic3RhdGUiLCJpbml0aWFsIjpmYWxzZSwiYWNjZXB0aW5nIjpmYWxzZX0= -->
<g id="4" class="node">
<title>4</title>
<ellipse fill="none" stroke="#000000" cx="370.3092" cy="-114" rx="27" ry="18"/>
<text text-anchor="middle" x="370.3092" y="-109.8" font-family="Times,serif" font-size="14.00" fill="#000000">∅</text>
</g>
<!-- 2&#45;&gt;4 -->
<!-- eyJ0eXBlIjoidHJhbnNpdGlvbiIsImZyb20iOiIyIiwidG8iOiI0IiwibGV0dGVycyI6WyJiIl19 -->
<g id="2|4" class="edge">
<title>2&#45;&gt;4</title>
<path fill="none" stroke="#000000" d="M250.8468,-82.3356C274.8049,-88.6859 309.5745,-97.9018 335.4314,-104.7554"/>
<polygon fill="#000000" stroke="#000000" points="334.6482,-108.1686 345.2112,-107.3476 336.4417,-101.4022 334.6482,-108.1686"/>
<text text-anchor="start" x="299.2758" y="-102.2" font-family="Times,serif" font-style="italic" font-size="14.00" fill="#000000">b</text>
</g>
<!-- 3&#45;&gt;0 -->
<!-- eyJ0eXBlIjoidHJhbnNpdGlvbiIsImZyb20iOiIzIiwidG8iOiIwIiwibGV0dGVycyI6WyJiIl19 -->
<g id="3|0" class="edge">
<title>3&#45;&gt;0</title>
<path fill="none" stroke="#000000" d="M325.1231,-17.4792C282.7524,-14.7524 218.1501,-14.52 165.0667,-31.2 144.1145,-37.7837 123.2337,-50.8759 107.4072,-62.4963"/>
<polygon fill="#000000" stroke="#000000" points="105.0166,-59.9167 99.1664,-68.75 109.2482,-65.4929 105.0166,-59.9167"/>
<text text-anchor="start" x="219.6713" y="-37.2" font-family="Times,serif" font-style="italic" font-size="14.00" fill="#000000">b</text>
</g>
<!-- 3&#45;&gt;3 -->
<!-- eyJ0eXBlIjoidHJhbnNpdGlvbiIsImZyb20iOiIzIiwidG8iOiIzIiwibGV0dGVycyI6WyJhIl19 -->
<g id="3|3" class="edge">
<title>3&#45;&gt;3</title>
<path fill="none" stroke="#000000" d="M358.1789,-43.3994C356.8556,-53.3265 360.899,-62 370.3092,-62 376.1906,-62 379.9755,-58.6119 381.6641,-53.6472"/>
<polygon fill="#000000" stroke="#000000" points="385.175,-53.635 382.4395,-43.3994 378.1949,-53.1068 385.175,-53.635"/>
<text text-anchor="start" x="367.2019" y="-67.2" font-family="Times,serif" font-style="italic" font-size="14.00" fill="#000000">a</text>
</g>
<!-- 4&#45;&gt;4 -->
<!-- eyJ0eXBlIjoidHJhbnNpdGlvbiIsImZyb20iOiI0IiwidG8iOiI0IiwibGV0dGVycyI6WyJhIiwiYiJdfQ== -->
<g id="4|4" class="edge">
<title>4&#45;&gt;4</title>
<path fill="none" stroke="#000000" d="M358.8073,-130.2903C356.0338,-140.3892 359.8678,-150 370.3092,-150 376.9982,-150 380.9756,-146.0557 382.2412,-140.5656"/>
<polygon fill="#000000" stroke="#000000" points="385.7263,-140.1351 381.8111,-130.2903 378.7324,-140.4279 385.7263,-140.1351"/>
<text text-anchor="start" x="358.4519" y="-155.2" font-family="Times,serif" font-style="italic" font-size="14.00" fill="#000000">a</text>
<text text-anchor="start" x="364.6665" y="-155.2" font-family="Times,serif" font-size="14.00" fill="#000000"> , </text>
<text text-anchor="start" x="375.1665" y="-155.2" font-family="Times,serif" font-style="italic" font-size="14.00" fill="#000000">b</text>
</g>
<!-- start0 -->
<!-- eyJ0eXBlIjoic3RhcnQiLCJ0byI6MH0= -->
<g id="node6" class="node">
<title>start0</title>
</g>
<!-- start0&#45;&gt;0 -->
<!-- eyJ0eXBlIjoic3RhcnRfYXJyb3ciLCJ0byI6MH0= -->
<g id="start_arrow0" class="edge">
<title>start0&#45;&gt;0</title>
<path fill="none" stroke="#000000" d="M1.0079,-83C3.4537,-83 14.4367,-83 27.4727,-83"/>
<path fill="none" stroke="transparent" d="M1.0079,-85C3.4537,-85 14.4367,-85 27.4727,-85"/>
<path fill="none" stroke="#000000" d="M1.0079,-87C3.4537,-87 14.4367,-87 27.4727,-87"/>
<polygon fill="#000000" stroke="#000000" points="27.7343,-88.5001 37.7342,-85 27.7342,-81.5001 27.7343,-88.5001"/>
</g>
</g>
</svg>
